# xmcd
#
# Track frame offsets:
# 150
# 13646
# 35186
# 50893
# 96149
# 110275
# 128358
# 153175
# 166937
# 188241
# 208739
# 227225
# 250706
# 283225
# 307028
#
# Disc length: 4757 seconds
#
# Revision: 0
# Processed by: cddbd v1.4PL0 Copyright (c) Steve Scherf et al.
# Submitted via: Axialis_AX_CDPlayer 2.6
#
DISCID=ce12930f
DTITLE=Animals - Music History - Disc 2
DYEAR=1900
DGENRE=
TTITLE0=I Put A Spell On You
TTITLE1=Boom Boom Boom Boom 
TTITLE2=Rockin' Pneumonia And The Boogie Woogie Flu
TTITLE3=As The Years Go Passing By
TTITLE4=Rollin' Like A Pebble In The Sand
TTITLE5=Good Times - Bad Woman
TTITLE6=Some Change
TTITLE7=Enough Is Enough
TTITLE8=Whatcha Gonna Do
TTITLE9=A Gigster's Life For Me
TTITLE10=(I Got) Business With The Blues
TTITLE11=How You've Changed
TTITLE12=Old Love
TTITLE13=What Am I Living For
TTITLE14=Say It Isn't True
EXTD=
EXTT0=
EXTT1=
EXTT2=
EXTT3=
EXTT4=
EXTT5=
EXTT6=
EXTT7=
EXTT8=
EXTT9=
EXTT10=
EXTT11=
EXTT12=
EXTT13=
EXTT14=
PLAYORDER=
